<svg width="81" height="28" viewBox="0 0 81 28" fill="none" xmlns="http://www.w3.org/2000/svg">
<g clip-path="url(#clip0_6810_2198)">
<path d="M14.3172 4.1991L21.5263 8.39744V23.5182L14.3172 19.3198V4.1991Z" fill="#68E053"/>
<path d="M7.20941 23.8023L14.4185 28.0007L21.5272 23.518L14.3181 19.3197L7.20941 23.8023Z" fill="#59C239"/>
<path d="M0 4.50013L7.20909 8.69847V23.8192L0 19.6208V4.50013Z" fill="#2E4EF5"/>
<path d="M0 4.49941L7.20909 8.69774L14.3178 4.19834L7.10874 0L0 4.49941Z" fill="#306FF5"/>
<path fill-rule="evenodd" clip-rule="evenodd" d="M31.5462 2.45427H33.4497V3.88185H38.0723V2.45427H39.9077V3.88185H43.3747V5.17347H39.9077V6.87296H38.0723V5.17347H33.4497V6.87296H31.5462V5.17347H28.0113V3.88185H31.5462V2.45427ZM36.714 6.73773H34.8786V7.82542H30.052V11.5643H28.0805V13.1278H34.8786V13.6037L27.9787 19.0421L30.5278 19.1441L35.7623 15.0313L41.2347 19.0421H43.614L36.714 13.6037V13.1278H43.648V11.5643H41.6766V7.82542H36.714V6.73773ZM31.9555 9.11705V11.5643H34.8786V9.11705H31.9555ZM36.714 11.5643V9.11705H39.841V11.5643H36.714ZM54.7298 2.45427H56.6333V4.22174H60.78V5.17347H56.6333V5.78529H60.5081V11.2987C60.5081 11.4115 60.4164 11.5028 60.3036 11.5026L57.449 11.4955V10.5438H58.6726V10.136H56.6333V12.1075H54.7298V10.136H53.1663V11.4276H51.2628V5.78529H54.7298V5.17347H50.719V4.22174H54.7298V2.45427ZM53.1663 6.737V7.4168H54.7298V6.737H53.1663ZM56.6333 6.737V7.4168H58.6726V6.737H56.6333ZM53.1663 8.36852V9.18424H54.7298V8.36852H53.1663ZM56.6333 8.36852V9.18424H58.6726V8.36852H56.6333ZM49.5631 2.65751H47.7277V5.98853H46.0961V7.41611H47.7277V18.8368H49.5631V7.41611H50.9227V5.98853H49.5631V2.65751ZM59.7604 12.0393H57.925V12.3792H50.8551V13.8748H57.925V17.6817H55.2738L55.6137 18.8374H59.7604V13.8748H61.12V12.3792H59.7604V12.0393ZM55.8851 14.6221H52.6901L53.0299 16.0496H56.2929L55.8851 14.6221ZM60.0299 2.65751H57.7865L58.1264 3.7452H60.3698L60.0299 2.65751ZM65.4523 3.15795H77.56V4.53992H65.4523V3.15795ZM64.4533 8.54776H78.5618V9.92973H69.5885L67.4294 16.0164V16.9036L75.1437 16.8348L74.2223 14.3933H76.1887L77.7563 18.5336H76.4981H75.79H65.6555V15.59L67.7303 9.92973H64.4533V8.54776Z" fill="black"/>
<path fill-rule="evenodd" clip-rule="evenodd" d="M34.5068 21.3234H29.2858L28.4696 22.1977L28.4695 25.259L29.2856 26.1334L34.5068 26.1335V25.3396H29.5819L29.2635 24.99V22.4668L29.5818 22.1173H34.5068V21.3234ZM43.4519 21.3237L37.7289 21.3235V26.1336L43.4519 26.1337L44.268 25.2593V22.198L43.4519 21.3237ZM38.5229 25.3397V22.1175H43.1557L43.474 22.4671V23.2758H39.3462V24.0697H43.474V24.9901L43.1557 25.3397H38.5229ZM34.5068 23.2756H29.864V24.0696H34.5068V23.2756ZM57.6333 21.3272H52.3191L52.1869 21.4815C52.0829 21.6029 52.0013 21.6984 51.92 21.7936L51.9199 21.7937L51.9198 21.7937L51.9188 21.795C51.8377 21.8898 51.7568 21.9845 51.6536 22.105L51.5473 22.229V25.223L51.6536 25.3471C51.7569 25.4676 51.8382 25.5628 51.9193 25.6577L51.9202 25.6588C52.0015 25.7539 52.0829 25.8493 52.1869 25.9706L52.3191 26.1249H57.7234V25.2413H52.7255L52.5913 25.0843L52.4306 24.8963V22.5558L52.5913 22.3677L52.7255 22.2107H57.6333V21.3272ZM65.9957 22.4494H62.4648L61.8599 23.0546V25.5335L62.1734 25.8471L62.2419 25.9156L62.4648 26.1387H65.9957L66.4214 25.7129L66.6007 25.5335V23.0546L65.9957 22.4494ZM62.7431 23.4206L62.8307 23.333H65.6298L65.7174 23.4206V25.1675L65.6298 25.2551H62.8307L62.7431 25.1675V23.4206ZM67.6008 22.5795H68.484V25.0706C68.5372 25.1331 68.5844 25.188 68.637 25.2483H71.4048C71.4574 25.1866 71.5063 25.13 71.5622 25.0661V22.5795H72.4455V25.4002L72.3346 25.5255C72.1781 25.7026 72.0971 25.797 71.9462 25.9754L71.8139 26.1318H68.2382L68.1064 25.9827C67.9444 25.7996 67.8591 25.7 67.7053 25.5182L67.6008 25.3946V22.5795ZM59.5884 21.4296V26.0157H60.4717V21.4296H59.5884ZM77.1657 24.1316V23.3331H74.2713L74.1837 23.4207V25.1676L74.2713 25.2552H77.068L77.166 25.1587V24.1316H77.1657ZM78.0493 23.2239V21.3952H77.1657V22.4495H73.9054L73.3005 23.0547V25.5336L73.9054 26.1388H77.3642V25.997L77.4674 26.1019L78.0496 25.5287V23.2239H78.0493Z" fill="black"/>
</g>
<defs>
<clipPath id="clip0_6810_2198">
<rect width="80.5" height="28" fill="white"/>
</clipPath>
</defs>
</svg>
